<svg width="84" height="28" viewBox="0 0 84 28" fill="none" xmlns="http://www.w3.org/2000/svg">
  <path
    d="M11.9996 10.5L14.1156 15.588L19.6076 16.028L15.4236 19.612L16.7016 24.972L11.9996 22.1L7.2976 24.972L8.5756 19.612L4.3916 16.028L9.8836 15.588L11.9996 10.5ZM11.9996 15.707L11.2606 17.484L9.3446 17.637L10.8046 18.888L10.3576 20.759L11.9996 19.756L13.6406 20.759L13.1946 18.889L14.6536 17.637L12.7386 17.484L11.9996 15.707ZM7.9996 4V13H5.9996V4H7.9996ZM17.9996 4V13H15.9996V4H17.9996ZM12.9996 4V9H10.9996V4H12.9996Z"
    fill="black" />
  <path
    d="M69 3V5H75V3H77V5H81C81.2652 5 81.5196 5.10536 81.7071 5.29289C81.8946 5.48043 82 5.73478 82 6V22C82 22.2652 81.8946 22.5196 81.7071 22.7071C81.5196 22.8946 81.2652 23 81 23H63C62.7348 23 62.4804 22.8946 62.2929 22.7071C62.1054 22.5196 62 22.2652 62 22V6C62 5.73478 62.1054 5.48043 62.2929 5.29289C62.4804 5.10536 62.7348 5 63 5H67V3H69ZM80 12H64V21H80V12ZM75.036 13.136L76.45 14.55L71.5 19.5L67.964 15.964L69.38 14.55L71.501 16.672L75.037 13.136H75.036ZM67 7H64V10H80V7H77V8H75V7H69V8H67V7Z"
    fill="black" />
  <path d="M36.9605 14.784V13.728H41.4245V9.288H42.6005V13.728H47.0405V14.784H42.6005V19.248H41.4245V14.784H36.9605Z"
    fill="#727272" />
</svg>