<svg
  width="24"
  height="24"
  viewBox="0 0 34 34"
  fill="none"
  xmlns="http://www.w3.org/2000/svg"
>
<path
    d="M17 33.6667C7.79504 33.6667 0.333374 26.205 0.333374 17C0.333374 7.79501 7.79504 0.333344 17 0.333344C26.205 0.333344 33.6667 7.79501 33.6667 17C33.6667 26.205 26.205 33.6667 17 33.6667ZM17 30.3333C20.5363 30.3333 23.9276 28.9286 26.4281 26.4281C28.9286 23.9276 30.3334 20.5362 30.3334 17C30.3334 13.4638 28.9286 10.0724 26.4281 7.57192C23.9276 5.07143 20.5363 3.66668 17 3.66668C13.4638 3.66668 10.0724 5.07143 7.57195 7.57192C5.07147 10.0724 3.66671 13.4638 3.66671 17C3.66671 20.5362 5.07147 23.9276 7.57195 26.4281C10.0724 28.9286 13.4638 30.3333 17 30.3333ZM17 14.6433L21.7134 9.92834L24.0717 12.2867L19.3567 17L24.0717 21.7133L21.7134 24.0717L17 19.3567L12.2867 24.0717L9.92837 21.7133L14.6434 17L9.92837 12.2867L12.2867 9.92834L17 14.6433Z"
    fill="#1A1A1A"
  />
</svg>
