<svg
  width="110"
  height="24"
  viewBox="0 0 110 24"
  fill="none"
  xmlns="http://www.w3.org/2000/svg"
>
<path
    d="M50.5753 10.1293C50.2273 7.9517 48.522 6.67898 46.3693 6.67898C43.7344 6.67898 41.7905 8.6527 41.7905 11.9091C41.7905 15.1655 43.7244 17.1392 46.3693 17.1392C48.6065 17.1392 50.2422 15.7372 50.5753 13.7237L49.0241 13.7188C48.7607 15.0213 47.6669 15.7372 46.3793 15.7372C44.6342 15.7372 43.3168 14.3999 43.3168 11.9091C43.3168 9.43821 44.6293 8.08097 46.3842 8.08097C47.6818 8.08097 48.7706 8.81179 49.0241 10.1293H50.5753ZM53.7807 12.4659C53.7807 11.2479 54.5513 10.5518 55.6103 10.5518C56.6344 10.5518 57.2459 11.2031 57.2459 12.3217V17H58.7324V12.1428C58.7324 10.2386 57.6884 9.2642 56.1174 9.2642C54.9292 9.2642 54.2132 9.78125 53.8553 10.6065H53.7608V6.81818H52.2942V17H53.7807V12.4659ZM64.0073 17.1541C65.6728 17.1541 66.851 16.3338 67.1891 15.0909L65.7821 14.8374C65.5137 15.5582 64.8674 15.9261 64.0222 15.9261C62.7495 15.9261 61.8944 15.1009 61.8546 13.6293H67.2836V13.1023C67.2836 10.343 65.633 9.2642 63.9029 9.2642C61.775 9.2642 60.373 10.8849 60.373 13.2315C60.373 15.603 61.7551 17.1541 64.0073 17.1541ZM61.8596 12.5156C61.9192 11.4318 62.7047 10.4922 63.9128 10.4922C65.0662 10.4922 65.8219 11.3473 65.8269 12.5156H61.8596ZM72.1495 17.1541C73.9542 17.1541 75.1225 16.0703 75.2866 14.5838H73.8398C73.6509 15.4091 73.0096 15.8963 72.1594 15.8963C70.9016 15.8963 70.0913 14.8473 70.0913 13.1818C70.0913 11.5462 70.9165 10.517 72.1594 10.517C73.104 10.517 73.6808 11.1136 73.8398 11.8295H75.2866C75.1275 10.2884 73.8697 9.2642 72.1346 9.2642C69.9819 9.2642 68.5898 10.8849 68.5898 13.2166C68.5898 15.5185 69.9322 17.1541 72.1495 17.1541ZM76.8762 17H78.3627V14.2905L79.1035 13.5497L81.6987 17H83.5233L80.2221 12.6399L83.3145 9.36364H81.5346L78.492 12.5952H78.3627V6.81818H76.8762V17ZM91.5909 17.1541C93.7436 17.1541 95.1506 15.5781 95.1506 13.2166C95.1506 10.8402 93.7436 9.2642 91.5909 9.2642C89.4382 9.2642 88.0312 10.8402 88.0312 13.2166C88.0312 15.5781 89.4382 17.1541 91.5909 17.1541ZM91.5959 15.9062C90.1889 15.9062 89.5327 14.6783 89.5327 13.2116C89.5327 11.75 90.1889 10.5071 91.5959 10.5071C92.9929 10.5071 93.6491 11.75 93.6491 13.2116C93.6491 14.6783 92.9929 15.9062 91.5959 15.9062ZM101.647 13.8331C101.652 15.1307 100.688 15.7472 99.8525 15.7472C98.9327 15.7472 98.2963 15.081 98.2963 14.0419V9.36364H96.8098V14.2209C96.8098 16.1151 97.8489 17.0994 99.3155 17.0994C100.464 17.0994 101.244 16.4929 101.597 15.6776H101.677V17H103.139V9.36364H101.647V13.8331ZM108.701 9.36364H107.135V7.53409H105.648V9.36364H104.529V10.5568H105.648V15.0661C105.643 16.4531 106.702 17.1243 107.875 17.0994C108.348 17.0945 108.666 17.005 108.84 16.9403L108.571 15.7124C108.472 15.7322 108.288 15.777 108.049 15.777C107.567 15.777 107.135 15.6179 107.135 14.7578V10.5568H108.701V9.36364Z"
    fill="#978F8B"
  />
<path
    d="M29.6666 9.21863V17.3333H28.3333V9.21863L24.7573 12.7946L23.8146 11.852L28.9999 6.66663L34.1853 11.852L33.2426 12.7946L29.6666 9.21863Z"
    fill="#978F8B"
  />
<path
    d="M17 3H21C21.2652 3 21.5196 3.10536 21.7071 3.29289C21.8946 3.48043 22 3.73478 22 4V20C22 20.2652 21.8946 20.5196 21.7071 20.7071C21.5196 20.8946 21.2652 21 21 21H3C2.73478 21 2.48043 20.8946 2.29289 20.7071C2.10536 20.5196 2 20.2652 2 20V4C2 3.73478 2.10536 3.48043 2.29289 3.29289C2.48043 3.10536 2.73478 3 3 3H7V1H9V3H15V1H17V3ZM20 11H4V19H20V11ZM15 5H9V7H7V5H4V9H20V5H17V7H15V5ZM6 13H8V15H6V13ZM11 13H13V15H11V13ZM16 13H18V15H16V13Z"
    fill="#978F8B"
  />
</svg>
