<svg
  width="103"
  height="24"
  viewBox="0 0 103 24"
  fill="none"
  xmlns="http://www.w3.org/2000/svg"
>
<path
    d="M53.5753 11.1293C53.2273 8.9517 51.522 7.67898 49.3693 7.67898C46.7344 7.67898 44.7905 9.6527 44.7905 12.9091C44.7905 16.1655 46.7244 18.1392 49.3693 18.1392C51.6065 18.1392 53.2422 16.7372 53.5753 14.7237L52.0241 14.7188C51.7607 16.0213 50.6669 16.7372 49.3793 16.7372C47.6342 16.7372 46.3168 15.3999 46.3168 12.9091C46.3168 10.4382 47.6293 9.08097 49.3842 9.08097C50.6818 9.08097 51.7706 9.81179 52.0241 11.1293H53.5753ZM56.7807 13.4659C56.7807 12.2479 57.5513 11.5518 58.6103 11.5518C59.6344 11.5518 60.2459 12.2031 60.2459 13.3217V18H61.7324V13.1428C61.7324 11.2386 60.6884 10.2642 59.1174 10.2642C57.9292 10.2642 57.2132 10.7812 56.8553 11.6065H56.7608V7.81818H55.2942V18H56.7807V13.4659ZM67.0073 18.1541C68.6728 18.1541 69.851 17.3338 70.1891 16.0909L68.7821 15.8374C68.5137 16.5582 67.8674 16.9261 67.0222 16.9261C65.7495 16.9261 64.8944 16.1009 64.8546 14.6293H70.2836V14.1023C70.2836 11.343 68.633 10.2642 66.9029 10.2642C64.775 10.2642 63.373 11.8849 63.373 14.2315C63.373 16.603 64.7551 18.1541 67.0073 18.1541ZM64.8596 13.5156C64.9192 12.4318 65.7047 11.4922 66.9128 11.4922C68.0662 11.4922 68.8219 12.3473 68.8269 13.5156H64.8596ZM75.1495 18.1541C76.9542 18.1541 78.1225 17.0703 78.2866 15.5838H76.8398C76.6509 16.4091 76.0096 16.8963 75.1594 16.8963C73.9016 16.8963 73.0913 15.8473 73.0913 14.1818C73.0913 12.5462 73.9165 11.517 75.1594 11.517C76.104 11.517 76.6808 12.1136 76.8398 12.8295H78.2866C78.1275 11.2884 76.8697 10.2642 75.1346 10.2642C72.9819 10.2642 71.5898 11.8849 71.5898 14.2166C71.5898 16.5185 72.9322 18.1541 75.1495 18.1541ZM79.8762 18H81.3627V15.2905L82.1035 14.5497L84.6987 18H86.5233L83.2221 13.6399L86.3145 10.3636H84.5346L81.492 13.5952H81.3627V7.81818H79.8762V18ZM91.3743 18H92.8608V10.3636H91.3743V18ZM92.125 9.18537C92.6371 9.18537 93.0646 8.78764 93.0646 8.30043C93.0646 7.81321 92.6371 7.41051 92.125 7.41051C91.608 7.41051 91.1854 7.81321 91.1854 8.30043C91.1854 8.78764 91.608 9.18537 92.125 9.18537ZM96.3471 13.4659C96.3471 12.2479 97.0929 11.5518 98.127 11.5518C99.1362 11.5518 99.7477 12.2131 99.7477 13.3217V18H101.234V13.1428C101.234 11.2536 100.195 10.2642 98.6341 10.2642C97.4856 10.2642 96.7349 10.7962 96.3819 11.6065H96.2875V10.3636H94.8606V18H96.3471V13.4659Z"
    fill="#978F8B"
  />
<path
    d="M29.6666 14.7813L33.2426 11.2053L34.1853 12.148L28.9999 17.3333L23.8146 12.148L24.7573 11.2053L28.3333 14.7813V6.66663H29.6666V14.7813Z"
    fill="#978F8B"
  />
<path
    d="M17 3H21C21.2652 3 21.5196 3.10536 21.7071 3.29289C21.8946 3.48043 22 3.73478 22 4V20C22 20.2652 21.8946 20.5196 21.7071 20.7071C21.5196 20.8946 21.2652 21 21 21H3C2.73478 21 2.48043 20.8946 2.29289 20.7071C2.10536 20.5196 2 20.2652 2 20V4C2 3.73478 2.10536 3.48043 2.29289 3.29289C2.48043 3.10536 2.73478 3 3 3H7V1H9V3H15V1H17V3ZM20 11H4V19H20V11ZM15 5H9V7H7V5H4V9H20V5H17V7H15V5ZM6 13H8V15H6V13ZM11 13H13V15H11V13ZM16 13H18V15H16V13Z"
    fill="#978F8B"
  />
</svg>
