<svg width="24" height="30" viewBox="0 0 24 30" fill="none" xmlns="http://www.w3.org/2000/svg">
<path d="M12 0.333496L22.956 2.76816C23.5653 2.90416 24 3.44416 24 4.0695V17.3855C24 20.0602 22.6627 22.5588 20.4373 24.0415L12 29.6668L3.56267 24.0415C1.336 22.5575 0 20.0602 0 17.3868V4.0695C0 3.44416 0.434667 2.90416 1.044 2.76816L12 0.333496ZM12 3.0655L2.66667 5.13883V17.3855C2.66667 19.1682 3.55733 20.8335 5.04133 21.8228L12 26.4628L18.9587 21.8228C20.4427 20.8335 21.3333 19.1695 21.3333 17.3868V5.13883L12 3.06683V3.0655ZM17.936 9.96283L19.8227 11.8482L11.3373 20.3335L5.68 14.6762L7.56533 12.7908L11.336 16.5615L17.936 9.96149V9.96283Z" fill="black"/>
</svg>
