<svg
  width="76"
  height="19"
  viewBox="0 0 76 19"
  fill="none"
  xmlns="http://www.w3.org/2000/svg"
>
<path
    d="M36.0092 8.0348H37.5852C37.2422 6.05114 35.5469 4.67898 33.3494 4.67898C30.7145 4.67898 28.7905 6.66264 28.7905 9.91406C28.7905 13.1357 30.6598 15.1392 33.419 15.1392C35.8899 15.1392 37.6548 13.5185 37.6548 10.9482V9.78977H33.6527V11.0575H36.1683C36.1335 12.6982 35.0497 13.7372 33.419 13.7372C31.6243 13.7372 30.3168 12.38 30.3168 9.90412C30.3168 7.43821 31.6342 6.08097 33.3594 6.08097C34.7116 6.08097 35.6264 6.8267 36.0092 8.0348ZM44.323 11.8331C44.3279 13.1307 43.3635 13.7472 42.5282 13.7472C41.6085 13.7472 40.9721 13.081 40.9721 12.0419V7.36364H39.4856V12.2209C39.4856 14.1151 40.5247 15.0994 41.9913 15.0994C43.1397 15.0994 43.9203 14.4929 44.2733 13.6776H44.3528V15H45.8145V7.36364H44.323V11.8331ZM51.103 15.1541C52.7685 15.1541 53.9467 14.3338 54.2848 13.0909L52.8778 12.8374C52.6094 13.5582 51.9631 13.9261 51.1179 13.9261C49.8452 13.9261 48.9901 13.1009 48.9503 11.6293H54.3793V11.1023C54.3793 8.34304 52.7287 7.2642 50.9986 7.2642C48.8707 7.2642 47.4688 8.88494 47.4688 11.2315C47.4688 13.603 48.8509 15.1541 51.103 15.1541ZM48.9553 10.5156C49.0149 9.43182 49.8004 8.49219 51.0085 8.49219C52.1619 8.49219 52.9176 9.3473 52.9226 10.5156H48.9553ZM61.7509 9.22798C61.4426 8.03977 60.513 7.2642 58.8624 7.2642C57.1373 7.2642 55.9142 8.17401 55.9142 9.52628C55.9142 10.6101 56.5705 11.331 58.0023 11.6491L59.2949 11.9325C60.0307 12.0966 60.3738 12.4247 60.3738 12.902C60.3738 13.4936 59.7424 13.956 58.7679 13.956C57.878 13.956 57.3063 13.5732 57.1273 12.8224L55.6905 13.0412C55.9391 14.3935 57.0627 15.1541 58.7779 15.1541C60.6223 15.1541 61.9 14.1747 61.9 12.7926C61.9 11.7138 61.214 11.0476 59.812 10.7244L58.5989 10.446C57.7587 10.2472 57.3958 9.96378 57.4007 9.44673C57.3958 8.86009 58.0321 8.44247 58.8773 8.44247C59.802 8.44247 60.2296 8.95455 60.4036 9.46662L61.7509 9.22798ZM67.0991 7.36364H65.533V5.53409H64.0465V7.36364H62.9279V8.55682H64.0465V13.0661C64.0415 14.4531 65.1005 15.1243 66.2738 15.0994C66.7461 15.0945 67.0643 15.005 67.2383 14.9403L66.9698 13.7124C66.8704 13.7322 66.6864 13.777 66.4478 13.777C65.9656 13.777 65.533 13.6179 65.533 12.7578V8.55682H67.0991V7.36364ZM74.3427 9.22798C74.0344 8.03977 73.1048 7.2642 71.4542 7.2642C69.729 7.2642 68.506 8.17401 68.506 9.52628C68.506 10.6101 69.1623 11.331 70.5941 11.6491L71.8867 11.9325C72.6225 12.0966 72.9656 12.4247 72.9656 12.902C72.9656 13.4936 72.3342 13.956 71.3597 13.956C70.4698 13.956 69.8981 13.5732 69.7191 12.8224L68.2823 13.0412C68.5309 14.3935 69.6545 15.1541 71.3697 15.1541C73.2141 15.1541 74.4918 14.1747 74.4918 12.7926C74.4918 11.7138 73.8058 11.0476 72.4038 10.7244L71.1907 10.446C70.3505 10.2472 69.9876 9.96378 69.9925 9.44673C69.9876 8.86009 70.6239 8.44247 71.4691 8.44247C72.3938 8.44247 72.8214 8.95455 72.9954 9.46662L74.3427 9.22798Z"
    fill="#978F8B"
  />
<path
    d="M2.66666 17.6666C2.66666 16.2521 3.22857 14.8956 4.22876 13.8954C5.22896 12.8952 6.58551 12.3333 8 12.3333C9.41448 12.3333 10.771 12.8952 11.7712 13.8954C12.7714 14.8956 13.3333 16.2521 13.3333 17.6666H12C12 16.6058 11.5786 15.5883 10.8284 14.8382C10.0783 14.0881 9.06086 13.6666 8 13.6666C6.93913 13.6666 5.92172 14.0881 5.17157 14.8382C4.42142 15.5883 4 16.6058 4 17.6666H2.66666ZM8 11.6666C5.79 11.6666 4 9.87663 4 7.66663C4 5.45663 5.79 3.66663 8 3.66663C10.21 3.66663 12 5.45663 12 7.66663C12 9.87663 10.21 11.6666 8 11.6666ZM8 10.3333C9.47333 10.3333 10.6667 9.13996 10.6667 7.66663C10.6667 6.19329 9.47333 4.99996 8 4.99996C6.52666 4.99996 5.33333 6.19329 5.33333 7.66663C5.33333 9.13996 6.52666 10.3333 8 10.3333Z"
    fill="#978F8B"
  />
<path
    d="M10.6667 14.6666C10.6667 13.2521 11.2286 11.8956 12.2288 10.8954C13.229 9.8952 14.5855 9.33329 16 9.33329C17.4145 9.33329 18.771 9.8952 19.7712 10.8954C20.7714 11.8956 21.3333 13.2521 21.3333 14.6666H20C20 13.6058 19.5786 12.5883 18.8284 11.8382C18.0783 11.0881 17.0609 10.6666 16 10.6666C14.9391 10.6666 13.9217 11.0881 13.1716 11.8382C12.4214 12.5883 12 13.6058 12 14.6666H10.6667ZM16 8.66663C13.79 8.66663 12 6.87663 12 4.66663C12 2.45663 13.79 0.666626 16 0.666626C18.21 0.666626 20 2.45663 20 4.66663C20 6.87663 18.21 8.66663 16 8.66663ZM16 7.33329C17.4733 7.33329 18.6667 6.13996 18.6667 4.66663C18.6667 3.19329 17.4733 1.99996 16 1.99996C14.5267 1.99996 13.3333 3.19329 13.3333 4.66663C13.3333 6.13996 14.5267 7.33329 16 7.33329Z"
    fill="#978F8B"
  />
</svg>
