<svg width="12" height="15" viewBox="0 0 12 15" fill="none" xmlns="http://www.w3.org/2000/svg">
<path d="M5.99935 11.3233L8.82802 8.4953C9.38736 7.93586 9.76826 7.22313 9.92254 6.44723C10.0768 5.67132 9.99758 4.86709 9.69481 4.13622C9.39203 3.40536 8.87934 2.78068 8.22156 2.34119C7.56378 1.90169 6.79045 1.66711 5.99935 1.66711C5.20826 1.66711 4.43492 1.90169 3.77714 2.34119C3.11936 2.78068 2.60667 3.40536 2.3039 4.13622C2.00113 4.86709 1.92187 5.67132 2.07616 6.44723C2.23045 7.22313 2.61134 7.93586 3.17068 8.4953L5.99935 11.3233ZM9.77069 9.43797L5.99935 13.2093L2.22802 9.43797C1.48217 8.69208 0.974242 7.74177 0.768476 6.70721C0.562711 5.67265 0.668345 4.60031 1.07202 3.62579C1.4757 2.65126 2.15928 1.81833 3.03634 1.23231C3.9134 0.646284 4.94453 0.333496 5.99935 0.333496C7.05417 0.333496 8.08531 0.646284 8.96236 1.23231C9.83942 1.81833 10.523 2.65126 10.9267 3.62579C11.3304 4.60031 11.436 5.67265 11.2302 6.70721C11.0245 7.74177 10.5165 8.69208 9.77069 9.43797ZM1.33268 13.6666H10.666V15H1.33268V13.6666Z" fill="black"/>
</svg>
