<svg
  width="20"
  height="20"
  viewBox="0 0 20 20"
  fill="none"
  xmlns="http://www.w3.org/2000/svg"
>
<path
    d="M10.684 2.029C9.0494 1.88879 7.41122 2.25452 5.99146 3.07662C4.57171 3.89873 3.43903 5.13746 2.74694 6.62494C2.05486 8.11241 1.83683 9.7767 2.1224 11.3923C2.40797 13.0078 3.18334 14.4965 4.34342 15.6566C5.5035 16.8167 6.99219 17.592 8.60775 17.8776C10.2233 18.1632 11.8876 17.9451 13.3751 17.2531C14.8625 16.561 16.1013 15.4283 16.9234 14.0085C17.7455 12.5888 18.1112 10.9506 17.971 9.316C17.9009 8.4758 17.6973 7.65214 17.368 6.876L18.868 5.374C19.6149 6.80139 20.0034 8.38902 20 10C20 15.523 15.523 20 10 20C4.477 20 0 15.523 0 10C0 4.477 4.477 3.94134e-06 10 3.94134e-06C11.6107 -0.00142729 13.1979 0.386959 14.626 1.132L13.125 2.632C12.3488 2.30275 11.5252 2.0992 10.685 2.029H10.684ZM18.485 0.100004L19.9 1.515L10.708 10.707L9.296 10.71L9.294 9.293L18.485 0.100004Z"
    fill="#282828"
  />
</svg>
