<svg width="20" height="20" viewBox="0 0 20 20" fill="none" xmlns="http://www.w3.org/2000/svg">
<path d="M0.243 5.85448L9.49 0.310478C9.64542 0.217227 9.82325 0.167969 10.0045 0.167969C10.1857 0.167969 10.3636 0.217227 10.519 0.310478L19.757 5.85548C19.8311 5.89989 19.8925 5.96276 19.9351 6.03794C19.9776 6.11313 20 6.19807 20 6.28448V19.0005C20 19.2657 19.8946 19.5201 19.7071 19.7076C19.5196 19.8951 19.2652 20.0005 19 20.0005H1C0.734784 20.0005 0.48043 19.8951 0.292893 19.7076C0.105357 19.5201 1.10073e-08 19.2657 1.10073e-08 19.0005V6.28348C-1.81179e-05 6.19707 0.0223578 6.11213 0.0649455 6.03694C0.107533 5.96176 0.168879 5.89889 0.243 5.85448ZM2 7.13348V18.0005H18V7.13248L10.004 2.33248L2 7.13248V7.13348ZM10.06 12.6985L15.356 8.23548L16.644 9.76548L10.074 15.3025L3.364 9.77248L4.636 8.22848L10.06 12.6985Z" fill="#282828"/>
</svg>
